<svg width="728" height="983" viewBox="0 0 728 983" fill="none" xmlns="http://www.w3.org/2000/svg">
<path d="M78.0988 753.01L371.599 779.51L726.099 759.01M78.0988 753.01L175.099 745.01V731.285M78.0988 753.01L59.0988 814.01V888.01L78.0988 890.268M726.099 759.01V745.01H710.599V725.407M726.099 759.01V912.01L524.599 933.51L498.099 912.01L422.099 918.716M710.599 725.407L726.099 724.51L710.599 590.01M710.599 725.407C710.599 725.407 725.267 715.01 710.599 700.51L677.099 663.51M710.599 725.407L642.599 729.339M175.099 731.285L78.0988 724.51C78.0988 724.51 77.5988 547.804 107.099 403.51C112.265 378.24 117.478 351.332 122.736 324.01M175.099 731.285L371.599 745.01L498.099 737.695M362.099 924.01L136.599 897.218M362.099 924.01L268.099 970.51M362.099 924.01L371.599 923.172M95.0988 892.287L59.0988 941.51M95.0988 892.287L107.099 893.713M95.0988 892.287L78.0988 890.268M125.099 933.51L107.099 893.713M107.099 893.713L136.599 897.218M175.099 924.01L136.599 897.218M18.5988 933.51L78.0988 890.268M78.0988 890.268L0.598816 924.01M289.599 981.01L371.599 923.172M371.599 923.172L348.099 981.01M371.599 923.172L387.099 921.804M408.599 970.51L387.099 921.804M387.099 921.804L422.099 918.716M469.599 970.51L408.599 924.01M408.599 924.01L498.099 949.01M408.599 924.01L504.099 933.51L422.099 918.716M122.736 324.01C147.503 195.326 173.291 57.4822 200.099 38.5102L436.099 1.51025C516.598 8.43203 593.031 25.5103 628.099 67.5103C636.908 78.0606 645.519 102.43 653.476 133.01M122.736 324.01C122.736 324.01 126.099 333.908 153.599 347.51C181.099 361.112 320.599 330.01 387.099 278.51C453.599 227.01 653.476 133.01 653.476 133.01M653.476 133.01C659.81 157.354 665.729 185.633 671.004 214.01M498.099 737.695L462.599 533.51M498.099 737.695L562.599 733.965M462.599 533.51L546.099 623.01M462.599 533.51C462.599 533.51 449.099 521.51 476.599 499.01C504.099 476.51 518.599 499.01 518.599 499.01L628.099 613.928M546.099 623.01L562.599 733.965M546.099 623.01L642.599 729.339M562.599 733.965L574.599 733.271M628.099 613.928L703.33 464.51M628.099 613.928L677.099 663.51M703.33 464.51L695.099 370.51C695.099 370.51 688.445 316.125 677.876 253.01M703.33 464.51L710.599 590.01M677.099 663.51L710.599 590.01M596.099 681.51L574.599 733.271M574.599 733.271L642.599 729.339M671.004 214.01C671.004 214.01 631.473 298.851 614.099 356.01C599.427 404.279 585.599 482.01 585.599 482.01C585.599 482.01 581.099 505.01 596.099 507.01C611.099 509.01 614.099 486.01 614.099 486.01C614.099 486.01 628.305 405.98 642.599 356.01C658.761 299.51 677.876 253.01 677.876 253.01M671.004 214.01C673.44 227.115 675.738 240.241 677.876 253.01M130.599 473.01C121.25 472.846 110.856 475.245 109.599 484.51C108.229 494.611 120.407 499.887 130.599 500.01C140.454 500.13 151.931 495.861 151.599 486.01C151.274 476.37 140.243 473.18 130.599 473.01ZM244.099 482.01C242.868 488.266 246.394 492.829 251.599 496.51H272.099C277.751 492.979 282.007 488.613 281.099 482.01C280.449 477.288 277.987 474.769 274.099 472.01H253.099C248.53 474.604 245.113 476.855 244.099 482.01ZM423.599 458.51C417.897 458.387 415.459 462.902 412.099 467.51V499.01C415.62 502.915 418.342 506.115 423.599 506.01C428.69 505.909 431.219 502.819 434.599 499.01V467.51C431.374 462.992 429.148 458.631 423.599 458.51ZM558.599 458.51C550.599 458.51 548.099 464.01 548.099 470.01L549.599 499.01C549.599 504.51 554.598 507.01 559.599 507.01C564.6 507.01 569.599 504.51 569.599 499.01V467.51C569.599 463.01 566.599 458.51 558.599 458.51Z" stroke="black" stroke-width="3"/>
</svg>
