<svg width="329" height="573" viewBox="0 0 329 573" fill="none" xmlns="http://www.w3.org/2000/svg">
<path d="M172.674 436.391V571.14M172.674 436.391V107.64M172.674 436.391L242.174 444.14M172.674 436.391L118.674 452.14M172.674 571.14H309.174V452.14L242.174 444.14M172.674 571.14H62.174V467.64L118.674 452.14M172.674 107.64L242.174 131.14V158.64M172.674 107.64L118.674 134.64V153.14M242.174 444.14V261.14M242.174 158.64L308.174 128.14M242.174 158.64V182.172M308.174 128.14L166.674 80.1396M308.174 128.14V52.1396L166.674 1.63965M166.674 80.1396L57.674 134.64M166.674 80.1396V1.63965M57.674 134.64L118.674 153.14M57.674 134.64V61.6396L166.674 1.63965M118.674 153.14V206.448M118.674 452.14L119.604 303.64M292.674 244.14C269.633 244.14 237.674 244.14 237.674 244.14L232.174 239.64C232.174 239.64 227.6 251.425 221.174 255.14C209.574 261.846 198.174 255.14 188.674 244.14C179.174 233.14 174.674 208.14 188.674 198.14C202.674 188.14 221.174 204.64 221.174 204.64L234.674 183.14L242.174 182.172M292.674 244.14C292.674 244.14 317.174 240.14 319.174 209.64C321.174 179.14 296.674 175.14 296.674 175.14M292.674 244.14C292.674 244.14 270.174 229.14 270.174 204.64C270.174 180.14 296.674 175.14 296.674 175.14M296.674 175.14L242.174 182.172M242.174 261.14L253.674 271.14M242.174 261.14V246.64L261.674 255.14M246.674 288.64C246.674 288.64 259.475 286.069 265.174 280.64C271.247 274.855 275.204 269.463 274.174 261.14C273.356 254.525 265.174 246.64 265.174 246.64M246.674 288.64C246.674 288.64 239.645 267.496 246.674 257.64C251.554 250.796 265.174 246.64 265.174 246.64M246.674 288.64L296.674 314.14C296.674 314.14 302.674 316.14 316.674 300.64C330.674 285.14 325.674 267.14 325.674 267.14L289.174 246.64H265.174M26.174 263.64C26.174 263.64 12.1739 260.14 4.17399 229.14C-3.82595 198.14 8.67399 188.14 8.67399 188.14M26.174 263.64L88.174 254.38M26.174 263.64C26.174 263.64 46.1741 246.64 39.1741 219.14C32.1741 191.64 8.67399 188.14 8.67399 188.14M8.67399 188.14H95.174L110.174 204.64L118.674 206.448M95.174 253.334L103.174 252.14L113.174 226.14L120.174 231.64M95.174 253.334C95.174 253.334 96.8704 271.489 103.174 280.64C108.02 287.674 119.552 295.14 119.552 295.14M95.174 253.334L88.174 254.38M119.552 295.14L119.604 303.64M119.552 295.14L120.174 231.64M119.604 303.64L98.174 317.64C98.174 317.64 88.174 321.14 73.674 307.64C59.174 294.14 62.174 280.64 62.174 280.64L88.174 254.38M118.674 206.448L133.674 209.64C133.674 209.64 140.831 195.803 149.174 194.64C149.174 194.64 166.674 198.14 164.174 226.14C161.674 254.14 143.174 261.14 143.174 261.14C127.174 263.64 127.174 237.14 127.174 237.14L120.174 231.64" stroke="black" stroke-width="3"/>
</svg>
